<svg xmlns="http://www.w3.org/2000/svg" xml:space="preserve" width="550.295" height="550.295" style="shape-rendering:geometricPrecision;text-rendering:geometricPrecision;image-rendering:optimizeQuality;fill-rule:evenodd;clip-rule:evenodd" viewBox="0 0 849.98 849.98"><defs><style>.fil1{fill:#e6af2e;fill-opacity:.509804}</style></defs><g id="Layer_x0020_1"><g id="_1752558084144"><path d="M424.99 0C659.7 0 849.98 190.27 849.98 424.99c0 234.71-190.27 424.99-424.99 424.99C190.28 849.98 0 659.71 0 424.99 0 190.28 190.27 0 424.99 0z" style="fill:#000;fill-opacity:.129412"/><path d="M722.56 424.03 565.03 593.89h67.23l157.53-169.86L632.08 256.1l-67.29-.07 157.78 168z" class="fil1"/><path d="M379.28 593.95h-56.74l147.91-337.92h56.74z" style="fill:#e6af2e;fill-rule:nonzero;fill-opacity:.509804"/><path d="m127.42 425.89 157.53-169.86h-67.23L60.19 425.89 217.9 593.83l67.29.07-157.77-168z" class="fil1"/></g></g></svg>