<svg xmlns="http://www.w3.org/2000/svg" xml:space="preserve" width="614" height="206" style="shape-rendering:geometricPrecision;text-rendering:geometricPrecision;image-rendering:optimizeQuality;fill-rule:evenodd;clip-rule:evenodd" viewBox="0 0 186.05 62.57"><defs><style>.fil4{fill:#e6af2e}.fil3{fill:#f5d061}.fil0{fill:#ececec;fill-rule:nonzero}</style></defs><g id="Layer_x0020_1"><g id="_1821301621440"><path d="M104.22 44.87V39.8h2.6c1.98 0 3.22-.24 3.69-.71.48-.46.72-1.62.72-3.45V9.28c0-1.81-.24-2.96-.72-3.41-.47-.47-1.71-.7-3.69-.7h-2.6V.1h44.03v17.81h-5.07c-.13-5.09-.96-8.5-2.49-10.2-1.53-1.7-4.63-2.54-9.32-2.54h-10.74v13.74h2.54c2.8 0 4.63-.49 5.51-1.46.87-.96 1.42-3.19 1.63-6.68l5.07-.03v22.45l-5.07-.03c-.2-3.84-.73-6.32-1.6-7.43-.87-1.13-2.7-1.68-5.47-1.68h-2.61V39.8h11.72c3.92 0 6.61-.92 8.07-2.73 1.45-1.81 2.38-5.53 2.76-11.15h5.07v18.95h-44.03zM37.77 44.97v-5.08h2.61c1.98 0 3.22-.23 3.7-.7s.71-1.63.71-3.47V9.3c0-1.81-.23-2.96-.71-3.42-.48-.47-1.72-.7-3.7-.7h-2.61V.1h41.74v18.59h-5.15c0-2.33-.16-4.31-.46-5.95-.3-1.65-.77-3.05-1.4-4.21-.66-1.19-1.73-2.05-3.21-2.57-1.49-.53-3.72-.78-6.71-.78h-8.36v13.78h1.15c2.81 0 4.65-.49 5.52-1.46.87-.97 1.42-3.2 1.63-6.7l5.08-.04v22.51l-5.08-.03c-.2-3.85-.74-6.34-1.62-7.45-.88-1.13-2.7-1.68-5.46-1.68h-1.22v11.61c0 1.82.25 2.97.74 3.45s1.74.72 3.75.72h3.14v5.08H37.77z" class="fil0"/><path d="M82.94 44.97H75.7L89.8.1h9.12L84.83 44.97z" style="fill:#f5d061;fill-rule:nonzero"/><path d="M85.77 44.97h-7.25L92.62.1h9.12L87.65 44.97z" style="fill:#e6af2e;fill-rule:nonzero"/><path d="M166.42 22.41 151.4 44.97l15.52.09 15.02-22.81L166.9.12 151.38.1z" class="fil3"/><path d="m170.52 22.41-15.01 22.56 15.52.09 15.02-22.81L171 .12 155.48.1z" class="fil4"/><path d="M19.63 22.65 34.65.1 19.13 0 4.11 22.82l15.04 22.13 15.52.02z" class="fil3"/><path d="M15.53 22.65 30.54.1 15.02 0 0 22.82l15.05 22.13 15.52.02z" class="fil4"/><path d="M15.78 57.29c0 .37.06.61.16.7.11.1.36.15.74.15h.28v1.27H12.8v-1.27h.47c.39 0 .64-.05.75-.15.1-.09.15-.33.15-.7v-5.48c0-.37-.05-.61-.15-.7-.11-.1-.36-.15-.75-.15h-.47v-1.27h5.1l1.69 5.99 1.78-5.99h5.06v1.27h-.49c-.38 0-.63.05-.74.15-.1.09-.16.33-.16.7v5.48c0 .37.06.61.16.7.11.1.36.15.74.15h.49v1.27h-5.1v-1.27h.29c.38 0 .62-.05.73-.15.1-.09.16-.32.16-.7v-6.07l-2.42 8.19h-1.96l-2.35-8.2v6.08zm11.19 2.12v-1.17h.43c.28 0 .46-.05.55-.13.09-.09.14-.27.14-.55v-3.14c0-.27-.05-.46-.14-.54-.09-.09-.27-.13-.55-.13h-.43v-1.18h3.42v.69c.25-.3.53-.52.82-.67.3-.15.6-.22.92-.22.52 0 .92.14 1.22.43.3.29.45.68.45 1.16 0 .42-.12.76-.36 1.01-.24.26-.55.39-.93.39-.31 0-.56-.1-.76-.3-.2-.2-.3-.44-.3-.73 0-.23.06-.41.18-.57.12-.15.3-.25.53-.32-.09-.04-.17-.07-.24-.09-.06-.02-.12-.02-.18-.02-.36 0-.65.19-.89.57-.23.38-.34.88-.34 1.49v2.17c0 .28.04.46.13.55.08.08.27.13.55.13h.58v1.17h-4.8zm6.41-.93c0-.34.12-.63.36-.87.23-.24.52-.36.87-.36.34 0 .62.12.86.36s.36.53.36.87c0 .35-.12.64-.35.87-.24.24-.53.35-.87.35-.35 0-.64-.12-.88-.35a1.2 1.2 0 0 1-.35-.87zm5.31 1.06h-1.17v-3.82h1.3c.12.78.45 1.4 1 1.86.55.47 1.22.7 2.02.7.54 0 .97-.1 1.29-.31.31-.21.46-.49.46-.85 0-.56-.58-.98-1.74-1.25-.19-.04-.33-.07-.43-.1-1.01-.24-1.71-.44-2.11-.59-.38-.16-.71-.34-.96-.54-.33-.25-.57-.56-.74-.91-.17-.35-.25-.75-.25-1.18 0-.98.35-1.74 1.04-2.28.69-.54 1.66-.81 2.92-.81.63 0 1.19.06 1.67.2.48.13.9.34 1.25.61l.29-.69h1.21v3.56h-1.33c-.09-.72-.39-1.29-.9-1.69-.51-.41-1.17-.62-1.98-.62-.48 0-.87.1-1.15.31-.28.2-.43.48-.43.82 0 .5.64.88 1.92 1.15.49.1.87.19 1.16.26 1.11.27 1.92.67 2.44 1.18.52.5.77 1.17.77 1.99 0 .97-.36 1.73-1.08 2.31-.73.57-1.71.85-2.94.85-.6 0-1.17-.08-1.73-.24-.57-.15-1.03-.36-1.41-.63l-.39.71zm10.89-3.55c0 .92.1 1.55.3 1.9.2.35.55.52 1.04.52.5 0 .85-.17 1.05-.52.2-.35.3-.98.3-1.9 0-.92-.1-1.56-.3-1.91-.2-.35-.55-.52-1.05-.52-.49 0-.84.17-1.04.52-.2.35-.3.99-.3 1.91zm-2.61 0c0-1.14.35-2.03 1.06-2.69.7-.66 1.67-.99 2.89-.99 1.24 0 2.2.33 2.91.99.71.66 1.06 1.55 1.06 2.69s-.35 2.04-1.06 2.69c-.71.65-1.67.98-2.91.98-1.23 0-2.19-.33-2.9-.98-.7-.65-1.05-1.55-1.05-2.69zm8.59 3.42v-1.17h.38c.28 0 .46-.05.55-.13.09-.09.13-.27.13-.55v-3.14c0-.27-.04-.46-.13-.54-.09-.09-.27-.13-.55-.13h-.38v-1.18h3.36v.96c.31-.4.64-.7 1-.88.36-.18.8-.27 1.31-.27s.94.1 1.27.28c.33.18.57.45.72.82.33-.38.67-.66 1.05-.84.38-.18.8-.27 1.29-.27.73 0 1.27.2 1.61.61.34.41.51 1.06.51 1.94v2.64c0 .3.04.49.14.56.09.08.29.12.61.12h.32v1.17h-4.17v-1.17h.06c.23 0 .4-.05.5-.15.09-.1.13-.28.13-.53v-2.64c0-.43-.07-.74-.21-.94-.14-.19-.36-.29-.66-.29-.33 0-.59.13-.77.39-.18.27-.27.65-.27 1.14v2.25c0 .35.04.56.13.64.09.09.27.13.54.13v1.17h-3.77v-1.17c.26 0 .45-.05.54-.14.1-.1.15-.28.15-.54v-2.64c0-.43-.07-.74-.21-.94-.13-.19-.36-.29-.66-.29-.34 0-.59.13-.77.41-.17.27-.25.66-.25 1.18v2.28c0 .3.04.49.12.56.09.08.27.12.54.12v1.17h-4.16zm16.39-4.3h2.23v-.05c0-.48-.09-.84-.28-1.09-.2-.25-.48-.37-.85-.37-.35 0-.61.13-.8.39-.19.26-.29.63-.3 1.12zm2.84 1.98h1.73c-.22.85-.62 1.49-1.2 1.92-.58.43-1.34.65-2.27.65-1.1 0-1.98-.33-2.66-.99-.67-.66-1-1.53-1-2.61 0-1.14.32-2.05.97-2.71.65-.66 1.53-1 2.63-1 1.15 0 2.04.33 2.68.97.64.65.96 1.55.96 2.71v.27h-4.71v.11c0 .63.12 1.1.35 1.42.24.31.59.47 1.06.47.43 0 .77-.11 1.02-.32.25-.21.4-.5.44-.89zm6.64-3.36h.65c.65 0 1.12-.11 1.42-.34.29-.22.44-.59.44-1.08 0-.47-.14-.82-.42-1.03-.29-.21-.74-.32-1.38-.32h-.71v2.77zm0 4.41h.77c.72 0 1.25-.13 1.58-.38.33-.25.49-.64.49-1.19 0-.56-.16-.97-.49-1.23-.33-.25-.87-.38-1.6-.38h-.75v3.18zm-4.14 1.27v-1.27h.53c.38 0 .62-.05.73-.15.1-.09.16-.32.16-.69v-5.49c0-.38-.06-.62-.16-.71-.11-.09-.35-.14-.73-.14h-.53v-1.27h5.68c1.27 0 2.2.18 2.79.55.59.37.89.95.89 1.74 0 .53-.17 1-.52 1.39-.34.39-.84.69-1.5.9.85.18 1.48.48 1.89.88.41.41.62.94.62 1.6 0 .95-.33 1.63-.99 2.04-.67.42-1.78.62-3.35.62h-5.51zm13.38-3.42c0 .92.11 1.55.31 1.9.2.35.54.52 1.04.52s.85-.17 1.05-.52c.2-.35.3-.98.3-1.9 0-.92-.1-1.56-.3-1.91-.2-.35-.55-.52-1.05-.52s-.84.17-1.04.52c-.2.35-.31.99-.31 1.91zm-2.6 0c0-1.14.35-2.03 1.05-2.69.71-.66 1.67-.99 2.9-.99s2.2.33 2.91.99c.71.66 1.06 1.55 1.06 2.69s-.35 2.04-1.06 2.69c-.71.65-1.68.98-2.91.98-1.23 0-2.2-.33-2.9-.98-.7-.65-1.05-1.55-1.05-2.69zm13.62-4.45c0-.29-.05-.48-.14-.56-.1-.08-.28-.12-.55-.12h-.47v-1.17h3.58v7.87c0 .28.04.46.13.55.09.08.27.13.55.13h.33v1.17h-3.33v-.93c-.28.41-.59.71-.93.9-.34.2-.74.29-1.2.29-.93 0-1.64-.31-2.13-.92-.49-.62-.74-1.53-.74-2.71 0-1.14.25-2.04.76-2.7.5-.67 1.17-1 2.01-1 .43 0 .81.08 1.16.25.35.17.67.43.97.78v-1.83zm-2.28 4.5c0 .77.1 1.36.29 1.76.2.4.48.6.86.6s.66-.2.85-.58c.19-.39.28-.98.28-1.78 0-.82-.09-1.42-.27-1.8-.18-.38-.47-.57-.86-.57-.4 0-.69.19-.87.57-.18.38-.28.98-.28 1.8zm9.63 3.87-2.25-5.32c-.14-.34-.27-.56-.39-.66a.607.607 0 0 0-.42-.16h-.39v-1.2h4.39v1.2h-.33c-.2 0-.35.02-.45.06-.1.04-.15.1-.15.18 0 .09.05.26.16.51l.02.03 1.05 2.43.93-2.35.03-.07c.12-.29.17-.48.17-.57 0-.07-.04-.13-.12-.16-.08-.04-.21-.06-.4-.06h-.33v-1.2h3.23v1.2c-.33.01-.57.07-.73.16-.15.1-.31.34-.46.71l-2.2 5.35c-.4.97-.8 1.64-1.23 2.02-.42.37-.95.56-1.58.56-.61 0-1.1-.17-1.49-.52-.38-.35-.57-.81-.57-1.36 0-.41.12-.74.36-.99s.56-.37.96-.37c.35 0 .63.09.83.27.21.18.32.43.32.73s-.1.54-.28.71c-.18.18-.43.27-.74.27h-.15c-.03 0-.07-.01-.1-.01.11.12.22.21.33.26.1.06.21.08.33.08.34 0 .66-.15.95-.44.28-.3.51-.73.7-1.29zm7.17-8.24c-.05.02-.09.03-.13.03h-.21c-.32 0-.58-.1-.78-.3-.2-.2-.3-.47-.3-.8 0-.35.12-.65.36-.9.24-.24.54-.36.9-.36.42 0 .76.14 1.02.43.27.28.4.66.4 1.13 0 .66-.24 1.24-.72 1.73-.47.49-1.11.8-1.91.94v-.82c.39-.06.69-.18.91-.35.22-.17.37-.42.46-.73zm3.47 7.81h-1.02v-2.55h1.15c.16.47.44.83.81 1.09.37.26.81.39 1.3.39.34 0 .6-.05.78-.17.18-.11.28-.26.28-.47 0-.15-.06-.27-.18-.36-.12-.09-.43-.2-.92-.33-.08-.02-.19-.05-.34-.09-1.1-.29-1.84-.57-2.22-.84-.24-.18-.42-.39-.55-.66-.13-.26-.2-.55-.2-.86 0-.7.28-1.26.85-1.68.57-.43 1.32-.64 2.27-.64.42 0 .81.05 1.19.14.37.1.75.24 1.13.44l.15-.39h1.03v2.19h-1.03a2.497 2.497 0 0 0-2.15-1.19c-.28 0-.49.05-.65.17-.16.11-.24.26-.24.45 0 .33.56.63 1.67.91.3.07.53.13.71.18.66.18 1.17.45 1.52.81.36.37.54.8.54 1.29 0 .7-.3 1.26-.89 1.7-.59.43-1.37.65-2.33.65-.4 0-.8-.06-1.19-.16-.39-.11-.8-.29-1.25-.52l-.22.5zm12.8.06h-1.17v-3.82h1.3c.12.78.45 1.4 1 1.86.55.47 1.22.7 2.02.7.54 0 .97-.1 1.29-.31.31-.21.46-.49.46-.85 0-.56-.58-.98-1.74-1.25-.19-.04-.33-.07-.43-.1-1.01-.24-1.72-.44-2.11-.59-.39-.16-.71-.34-.96-.54-.33-.25-.57-.56-.74-.91-.17-.35-.25-.75-.25-1.18 0-.98.35-1.74 1.04-2.28.69-.54 1.66-.81 2.92-.81.63 0 1.18.06 1.67.2.48.13.9.34 1.25.61l.29-.69h1.21v3.56h-1.34c-.08-.72-.38-1.29-.89-1.69-.51-.41-1.17-.62-1.98-.62-.48 0-.87.1-1.15.31-.28.2-.43.48-.43.82 0 .5.64.88 1.92 1.15.49.1.87.19 1.16.26 1.11.27 1.92.67 2.44 1.18.51.5.77 1.17.77 1.99 0 .97-.36 1.73-1.08 2.31-.73.57-1.71.85-2.94.85-.6 0-1.17-.08-1.73-.24-.57-.15-1.03-.36-1.41-.63l-.39.71zm11.58-3.57c0 .81.09 1.41.28 1.79.18.37.47.56.87.56.39 0 .67-.19.85-.56.18-.38.28-.98.28-1.79s-.1-1.41-.28-1.79c-.19-.39-.47-.58-.85-.58s-.67.2-.86.59c-.19.4-.29.99-.29 1.78zm-2.42 4.7v-6.25c0-.27-.04-.46-.13-.54-.09-.09-.27-.13-.55-.13h-.33v-1.18h3.32v.92c.3-.4.63-.7.98-.88.34-.19.74-.28 1.19-.28.93 0 1.63.3 2.11.93.49.62.73 1.52.73 2.7 0 1.13-.25 2.03-.75 2.7-.51.66-1.18 1-2.02 1-.43 0-.82-.09-1.16-.25-.35-.17-.68-.42-.97-.77v2.03c0 .28.05.47.14.56.09.08.27.12.54.12h.48v1.18h-4.59v-1.18h.33c.28 0 .46-.04.55-.12.09-.09.13-.28.13-.56zm12.76-2.06c-.31.36-.66.63-1.05.8-.4.18-.84.26-1.33.26-.67 0-1.2-.18-1.59-.53-.4-.36-.6-.83-.6-1.43 0-.55.16-.97.48-1.27.32-.29.99-.55 2-.76.86-.19 1.4-.37 1.62-.55.21-.17.32-.43.32-.78 0-.33-.13-.59-.4-.8-.26-.2-.62-.3-1.06-.3-.25 0-.46.02-.63.07-.18.04-.33.12-.47.22.25.01.46.1.61.25.16.15.24.34.24.56 0 .28-.11.5-.32.68-.21.18-.49.27-.82.27-.38 0-.68-.11-.91-.31-.23-.2-.34-.47-.34-.79 0-.59.29-1.05.87-1.38.57-.33 1.38-.49 2.42-.49.51 0 .97.04 1.38.13.42.09.74.22.98.38.27.19.46.4.57.64.12.23.17.63.17 1.18v2.82c0 .23.03.39.09.5.06.1.15.16.29.16.13 0 .22-.05.28-.15.05-.1.08-.27.08-.51v-.59h.87v.67c0 .73-.16 1.26-.48 1.6-.32.34-.83.51-1.52.51-.46 0-.83-.09-1.13-.27-.29-.17-.5-.44-.62-.79zm-.19-2.57c-.19.09-.44.21-.75.36-.76.37-1.14.72-1.14 1.04 0 .23.08.42.25.56.15.14.37.21.63.21.31 0 .56-.1.74-.31.18-.2.27-.49.27-.86v-1zm9.49.97h1.52c-.05.84-.32 1.5-.84 1.96-.52.46-1.24.69-2.16.69-1.13 0-2-.32-2.63-.97-.62-.64-.93-1.54-.93-2.71 0-1.13.32-2.02.97-2.68.64-.66 1.52-.99 2.64-.99.91 0 1.64.22 2.19.65.55.44.82 1.01.82 1.71 0 .45-.13.81-.39 1.08-.27.27-.63.4-1.07.4-.37 0-.66-.1-.88-.31-.22-.21-.33-.49-.33-.84 0-.33.1-.59.29-.78.2-.19.46-.29.8-.29h.03c-.14-.14-.29-.24-.45-.3-.15-.07-.33-.1-.52-.1-.51 0-.9.2-1.16.59-.26.4-.39.99-.39 1.78 0 .83.11 1.44.33 1.83.21.4.55.59 1 .59.36 0 .64-.11.84-.33.19-.22.3-.55.32-.98zm4.87-1.9h2.23v-.05c0-.48-.09-.84-.28-1.09-.2-.25-.48-.37-.85-.37-.35 0-.61.13-.8.39-.19.26-.29.63-.3 1.12zm2.84 1.98h1.73c-.22.85-.62 1.49-1.2 1.92-.58.43-1.34.65-2.27.65-1.1 0-1.98-.33-2.66-.99-.67-.66-1-1.53-1-2.61 0-1.14.32-2.05.97-2.71.65-.66 1.53-1 2.63-1 1.15 0 2.04.33 2.68.97.64.65.96 1.55.96 2.71v.27h-4.71v.11c0 .63.12 1.1.35 1.42.24.31.59.47 1.06.47.43 0 .77-.11 1.02-.32.25-.21.4-.5.44-.89z" class="fil0"/></g></g></svg>